<svg id="Layer_1" viewBox="0 0 24 24" xmlns="http://www.w3.org/2000/svg" data-name="Layer 1"><path d="m17.5 0c-3.59 0-6.5 2.91-6.5 6.5s2.91 6.5 6.5 6.5 6.5-2.91 6.5-6.5-2.91-6.5-6.5-6.5zm3.191 9.653c-.812.83-1.939 1.347-3.191 1.347-1.228 0-2.327-.507-3.133-1.311l-.695.695c-.248.248-.672.072-.672-.278v-2.526c0-.32.259-.579.579-.579h2.526c.351 0 .526.424.278.672l-.607.607c.449.438 1.048.721 1.723.721s1.289-.275 1.738-.716c.171-.168.473-.284.774-.284.862 0 1.281 1.037.679 1.653zm1.309-4.232c0 .32-.259.579-.579.579h-2.526c-.351 0-.526-.424-.278-.672l.607-.607c-.449-.438-1.048-.721-1.723-.721s-1.289.275-1.738.716c-.171.168-.438.284-.774.284-.862 0-1.281-1.037-.679-1.653.812-.83 1.939-1.347 3.191-1.347 1.228 0 2.327.506 3.133 1.311l.695-.695c.248-.248.672-.072.672.278v2.526zm-12.24-2.421h-4.484c.622-1.742 2.271-3 4.224-3h2.528c-.964.813-1.741 1.837-2.268 3zm-.76 3.5c0-.513.053-1.012.14-1.5h-4.64c-2.481 0-4.5 2.019-4.5 4.5v10c0 2.481 2.019 4.5 4.5 4.5h7c2.481 0 4.5-2.019 4.5-4.5v-4.64c-3.978-.71-7-4.178-7-8.36zm-1.75 13.5h-.25v1c0 .552-.447 1-1 1s-1-.448-1-1v-1h-.484c-1.116 0-1.962-.774-2.381-1.499-.277-.478-.113-1.09.364-1.366.477-.277 1.09-.114 1.366.364.166.286.445.501.65.501h2.734c.413 0 .75-.336.75-.75 0-.27-.193-.498-.459-.542l-3.375-.438c-1.27-.211-2.166-1.269-2.166-2.52 0-1.517 1.233-2.75 2.75-2.75h.25v-1c0-.552.447-1 1-1s1 .448 1 1v1h.484c1.116 0 1.962.774 2.381 1.499.277.478.113 1.09-.364 1.366s-1.09.113-1.366-.364c-.166-.286-.445-.501-.65-.501h-2.734c-.413 0-.75.337-.75.75 0 .27.193.497.459.542l3.375.438c1.27.211 2.166 1.269 2.166 2.52 0 1.517-1.233 2.75-2.75 2.75zm13.75-5.76v.26c0 1.953-1.258 3.602-3 4.224v-3.749c1.065-.062 2.076-.316 3-.735z"/></svg>